<?xml version="1.0" standalone="no"?><!DOCTYPE svg PUBLIC "-//W3C//DTD SVG 1.1//EN" "http://www.w3.org/Graphics/SVG/1.1/DTD/svg11.dtd"><svg t="1519808221645" class="icon" style="" viewBox="0 0 1024 1024" version="1.1" xmlns="http://www.w3.org/2000/svg" p-id="1874" xmlns:xlink="http://www.w3.org/1999/xlink" width="200" height="200"><defs><style type="text/css"></style></defs><path d="M369.696 685.728q2.272-3.424-1.728-7.424-5.152-4-8-1.152-2.272 3.424 1.728 7.424 5.152 4 8 1.152zM353.696 662.272q-2.848-4-6.848-2.272-3.424 2.272 0 6.848 4 4.576 6.848 2.848 3.424-2.272 0-7.424zM330.272 639.424q1.152-2.272-2.848-4.576-4-1.152-4.576 1.152-1.728 2.848 2.272 4.576 4.576 1.152 5.152-1.152zM342.272 652.576q1.152-0.576 0.864-2.56t-2.016-3.136q-3.424-4-5.728-1.728t0.576 6.272q3.424 3.424 6.272 1.152zM391.392 695.424q1.152-4-5.152-6.272-5.152-1.728-7.424 2.272-1.152 4 5.152 6.272 5.152 1.728 7.424-2.272zM415.392 697.152q0-4.576-6.848-4.576-5.728 0-5.728 4.576t6.272 4.576 6.272-4.576zM437.696 693.152q-1.152-4-7.424-2.848t-5.152 5.152q1.152 4.576 6.848 3.424t5.728-5.728zM804.544 512q0-121.152-85.728-206.848t-206.848-85.728-206.848 85.728-85.728 206.848q0 95.424 56 171.712t144 106.016q10.272 1.728 15.136-2.848t4.864-11.424q0-29.728-0.576-54.272-3.424 0.576-8.864 1.44t-20.288 1.152-27.424-2.272-24.864-11.424-16.864-23.712q-13.152-33.728-32.576-42.272-1.152-0.576-2.56-2.016l-4.576-4.576t-4-5.44 2.272-4.288 11.136-2.016q3.424 0 8.576 1.152t17.152 8.864 18.848 20.288q9.152 16 21.44 24t24.864 8 21.728-2.016 17.152-5.44q4-26.848 18.848-39.424-28-3.424-49.152-10.56t-41.728-22.272-31.712-43.424-11.136-68.288q0-45.152 30.272-78.272-13.728-35.424 2.848-77.728 10.848-3.424 31.136 4.288t34.56 16.864l14.848 9.152q33.152-9.728 73.152-9.728t73.152 9.728q6.272-4 16.288-10.272t31.712-14.848 32.576-5.152q16.576 42.272 2.848 77.728 30.272 33.152 30.272 78.272 0 32.576-8 57.44t-20.288 40-30.56 25.44-35.712 14.848-39.136 6.848q20 17.728 20 54.272 0 22.848-0.288 50.848t-0.288 29.152q0 6.848 4.864 11.424t15.136 2.848q88-29.728 144-106.016t56-171.712zM950.848 237.728l0 548.576q0 68-48.288 116.288t-116.288 48.288l-548.576 0q-68 0-116.288-48.288t-48.288-116.288l0-548.576q0-68 48.288-116.288t116.288-48.288l548.576 0q68 0 116.288 48.288t48.288 116.288z" p-id="1875"></path></svg>